<svg width="16" height="22" viewBox="0 0 16 22" fill="none" xmlns="http://www.w3.org/2000/svg">
<path d="M4.24286 1.18119C6.60974 -0.193937 9.51933 -0.169493 11.864 1.24467C14.1853 2.68768 15.5957 5.26268 15.5827 8.03276C15.5287 10.785 14.016 13.3727 12.1247 15.3726C11.0331 16.532 9.8117 17.5572 8.48602 18.4273C8.34954 18.5062 8.19975 18.5594 8.04462 18.5835C7.89536 18.5771 7.75011 18.5325 7.62177 18.4546C5.59775 17.1472 3.8215 15.478 2.37958 13.5279C1.17326 11.9002 0.488 9.93323 0.416688 7.89506C0.415274 5.11954 1.87605 2.55641 4.24286 1.18119ZM8.98309 5.62065C8.02089 5.21165 6.91108 5.43446 6.17255 6.18412C5.43425 6.93379 5.21195 8.06305 5.61005 9.04448C6.00822 10.026 6.94833 10.6656 7.99091 10.6656C8.67395 10.6705 9.33031 10.3969 9.81415 9.9058C10.2979 9.41468 10.5695 8.74705 10.5671 8.05131C10.5707 6.98936 9.94521 6.02965 8.98309 5.62065Z" fill="#EC1E22"/>
<ellipse opacity="0.4" cx="8.00004" cy="20.75" rx="5.41667" ry="1.08333" fill="#EC1E22"/>
</svg>
